<svg width="24" height="24" viewBox="0 0 24 24" fill="none" xmlns="http://www.w3.org/2000/svg">
<path d="M22.5348 10.2146L12.2438 2.6796C12.1472 2.60891 12.0306 2.5708 11.9108 2.5708C11.7911 2.5708 11.6745 2.60891 11.5778 2.6796L1.28583 10.2146C1.2241 10.2575 1.17158 10.3124 1.13137 10.3759C1.09115 10.4395 1.06405 10.5104 1.05166 10.5846C1.03926 10.6588 1.04183 10.7347 1.0592 10.8078C1.07657 10.881 1.1084 10.95 1.15282 11.0107C1.19723 11.0713 1.25333 11.1225 1.31782 11.1612C1.38231 11.1999 1.45388 11.2253 1.52833 11.2359C1.60277 11.2465 1.67859 11.2421 1.75132 11.223C1.82405 11.2039 1.89223 11.1704 1.95183 11.1246L11.9098 3.8336L21.8678 11.1246C21.9887 11.2087 22.1377 11.2422 22.2829 11.2179C22.4281 11.1936 22.5581 11.1135 22.6451 10.9947C22.732 10.8759 22.7691 10.7278 22.7483 10.582C22.7275 10.4362 22.6505 10.3044 22.5338 10.2146H22.5348Z" fill="#FFA14D" fill-opacity="0.64"/>
<path d="M19.8082 11.251C19.6586 11.251 19.5152 11.3104 19.4094 11.4162C19.3036 11.5219 19.2442 11.6654 19.2442 11.815V20.794H14.7312V15.894C14.7173 15.1551 14.414 14.4512 13.8866 13.9336C13.3592 13.4161 12.6497 13.1261 11.9107 13.1261C11.1717 13.1261 10.4623 13.4161 9.93484 13.9336C9.40741 14.4512 9.10413 15.1551 9.09022 15.894V20.794H4.57722V11.815C4.57722 11.6654 4.5178 11.5219 4.41203 11.4162C4.30626 11.3104 4.1628 11.251 4.01322 11.251C3.86364 11.251 3.72018 11.3104 3.61441 11.4162C3.50864 11.5219 3.44922 11.6654 3.44922 11.815V21.3579C3.44922 21.5075 3.50864 21.651 3.61441 21.7568C3.72018 21.8625 3.86364 21.922 4.01322 21.922H9.65422C9.79614 21.9219 9.93281 21.8683 10.037 21.7719C10.1411 21.6756 10.2052 21.5434 10.2162 21.402C10.217 21.3873 10.217 21.3726 10.2162 21.3579V15.893C10.2162 15.4441 10.3945 15.0136 10.7119 14.6962C11.0293 14.3788 11.4598 14.2005 11.9087 14.2005C12.3576 14.2005 12.7881 14.3788 13.1055 14.6962C13.4229 15.0136 13.6012 15.4441 13.6012 15.893V21.3579C13.6005 21.3723 13.6005 21.3866 13.6012 21.4009C13.6121 21.5426 13.676 21.675 13.7801 21.7716C13.8843 21.8682 14.0211 21.9219 14.1632 21.922H19.8042C19.9538 21.922 20.0973 21.8625 20.203 21.7568C20.3088 21.651 20.3682 21.5075 20.3682 21.3579V11.815C20.3682 11.6661 20.3094 11.5232 20.2044 11.4176C20.0995 11.3119 19.9571 11.252 19.8082 11.251Z" fill="#FFA14D" fill-opacity="0.64"/>
</svg>
